<?xml version="1.0" ?><!DOCTYPE svg  PUBLIC '-//W3C//DTD SVG 1.1//EN'  'http://www.w3.org/Graphics/SVG/1.1/DTD/svg11.dtd'><svg enable-background="new 0 0 128 128" height="128px" id="Layer_1" version="1.1" viewBox="0 0 128 128" width="128px" xml:space="preserve" xmlns="http://www.w3.org/2000/svg" xmlns:xlink="http://www.w3.org/1999/xlink"><path d="M65.7,90h-2.3c-1.3,0-2.5,0.8-2.5,2v1.5c0,0.9,0.6,1.6,1.4,2L61.5,108h6.2l-1-12.5c0.8-0.4,1.3-1.1,1.3-2V92  C68,90.8,67,90,65.7,90L65.7,90z" fill="#2C3E50"/><path d="M49.4,93.4c0.1,0.3,0.2,0.7,0.2,1c3.2,11.9,5.9,20.6,11.9,20.6h6.2c5.4,0,8.3-7.2,10.4-14.1  c0.8-2.6,1.5-5.4,2-7.4c5.1,1.3,13.8,3.5,17,4.3c0.9,0.6,2.5,4.5,2.8,13.1c-4.1,1.5-14.8,4.6-35.2,4.6c-20.4,0-31.2-3.1-35.3-4.6  c0.3-8.6,1.9-12.5,2.8-13.1C35.4,96.9,44.3,94.7,49.4,93.4 M77.1,88.7c0,0-4.3,22.3-9.4,22.3h-6.2c-4.6,0-8.2-20-9.4-22.2  c0,0-16.4,4-21.1,5.2c-4.7,1.3-5.7,11.9-5.7,19.5c0,0,10.3,6,39.3,6c29.1,0,39.3-6.1,39.3-6.1c0-7.6-1-18.2-5.7-19.4  C93.5,92.8,77.1,88.7,77.1,88.7L77.1,88.7z" fill="#3B97D3"/><path d="M120.7,77c1-4,1.5-8.5,1.5-13c0-4.5-0.5-9-1.5-13h-11.4c-0.9-3-2.2-6.2-3.8-9.1l8.1-8.1  c-4.7-7.5-11-13.9-18.6-18.6l-8,8.1c-2.9-1.6-6-2.8-9-3.8V8.2c-4-1-8.5-1.5-13-1.5s-9,0.5-13,1.5v11.4c-4,0.9-6.4,2.2-9.3,3.8  l-8.2-8.1C27,20,20.6,26.4,15.9,33.9l8.1,8c-1.6,2.9-2.8,6.1-3.8,9.1H8.7c-1,4-1.5,8.5-1.5,13c0,4.5,0.5,9,1.5,13h11.4  c0.9,4,2.2,6.4,3.8,9.3l-8.1,8.2c2.3,3.6,4.9,7,7.9,10.1c0.2-1.7,0.5-3.3,0.9-4.8c-1.3-1.5-2.6-3-3.7-4.6l5.8-5.8l2.1-2.1l-1.4-2.6  C26,81.9,24.9,78.9,24,76l-0.8-3h-3H12c-0.5-3-0.8-6-0.8-9c0-3,0.3-6,0.8-9h8.2h3l0.8-2.8c0.9-2.9,2-5.7,3.4-8.3l1.4-2.6l-2.1-2.1  L21,33.4c3.5-5,7.9-9.4,12.9-12.9l5.8,5.8l2.1,2.1l2.6-1.4c2.6-1.4,5.6-2.6,8.5-3.4l3.1-0.8v-3v-8.2c3-0.5,6-0.8,9-0.8s6,0.3,9,0.8  v8.2v3l2.8,0.8c2.9,0.9,5.7,2,8.3,3.4l2.6,1.4l2.1-2.1l5.8-5.8c5,3.5,9.4,7.9,12.9,12.9l-5.8,5.8l-2.1,2.1l1.4,2.6  c1.4,2.6,2.6,5.4,3.4,8.3l0.8,2.8h3h8.2c0.5,3,0.8,6,0.8,9c0,3-0.3,6-0.8,9h-8.2h-3l-0.8,3c-0.9,2.9-2,5.8-3.4,8.4l-1.4,2.7l2.1,2.1  l5.8,5.8c-1.2,1.7-2.5,3.3-3.9,4.9c0.4,1.5,0.7,3.2,0.9,4.8c3.1-3.1,5.8-6.5,8.2-10.3l-8.1-8.2c1.6-2.9,2.8-5.3,3.8-9.3H120.7z" fill="#2C3E50"/><path d="M63.7,45.3L63.7,45.3c3.3,0,11,0.8,12.7,8.6c1.5,7.2-1.7,18.9-4.7,23.2c-3.6,5.2-5.4,5.7-7.3,5.7  c-2.4,0-4.5-0.9-8-5.2C54,74.4,50,63.4,51.1,55.2C52,48.2,55.7,45.3,63.7,45.3 M63.7,41.3c-5.7,0-15.1,1.3-16.6,13.4  C45.9,64,50.2,76,53.4,80c3.5,4.5,6.7,6.7,11.1,6.7c4,0,6.8-2,10.6-7.4c3.4-5,7.1-17.8,5.3-26.3C78.1,42.9,68.4,41.3,63.7,41.3  L63.7,41.3z" fill="#3B97D3"/></svg>